<svg width="512" height="512" viewBox="0 0 512 512" xmlns="http://www.w3.org/2000/svg">
  <defs>
    <linearGradient id="g" x1="0" x2="1" y1="1" y2="0">
      <stop offset="0%" stop-color="#0f9d58" />
      <stop offset="100%" stop-color="#66bb6a" />
    </linearGradient>
  </defs>
  <rect width="512" height="512" rx="128" fill="url(#g)" />
  <g fill="#ffffff">
    <path d="M256 112c-79.5 0-144 64.5-144 144s64.5 144 144 144 144-64.5 144-144S335.5 112 256 112zm0 32c61.9 0 112 50.1 112 112s-50.1 112-112 112-112-50.1-112-112 50.1-112 112-112z" />
    <path d="M256 176c-44.1 0-80 35.9-80 80s35.9 80 80 80 80-35.9 80-80h-48a32 32 0 11-32-32v-48z" />
  </g>
</svg>
